<?xml version="1.0" encoding="UTF-8"?>
<!--Generator: Apple Native CoreSVG 341-->
<!DOCTYPE svg
PUBLIC "-//W3C//DTD SVG 1.1//EN"
       "http://www.w3.org/Graphics/SVG/1.1/DTD/svg11.dtd">
<svg version="1.1" xmlns="http://www.w3.org/2000/svg" xmlns:xlink="http://www.w3.org/1999/xlink" viewBox="0 0 3300 2200">
 <!--glyph: "", point size: 100.0, font version: "21.0d6e2", template writer version: "138.0.0"-->
 <style>.defaults {-sfsymbols-wiggle-style:clockwise;-sfsymbols-rotates-clockwise:true;-sfsymbols-draw-reverses-motion-groups:true}

.monochrome-0 {-sfsymbols-motion-group:1;-sfsymbols-always-rotates:true;-sfsymbols-layer-tags:777bdd19388f653e gearshape.arrow.trianglehead.2.clockwise.rotate.90;-sfsymbols-clipstroke-attachments:1 4 0 1 0 0,1 4 0 3 1 2}
.monochrome-1 {-sfsymbols-motion-group:0;-sfsymbols-always-pulses:true;-sfsymbols-layer-tags:777bdd19388f653e gearshape.arrow.trianglehead.2.clockwise.rotate.90}

.multicolor-0:tintColor {-sfsymbols-motion-group:1;-sfsymbols-always-rotates:true;-sfsymbols-layer-tags:777bdd19388f653e gearshape.arrow.trianglehead.2.clockwise.rotate.90;-sfsymbols-clipstroke-attachments:1 4 0 1 0 0,1 4 0 3 1 2}
.multicolor-1:tintColor {-sfsymbols-motion-group:0;-sfsymbols-always-pulses:true;-sfsymbols-layer-tags:777bdd19388f653e gearshape.arrow.trianglehead.2.clockwise.rotate.90}

.hierarchical-0:secondary {-sfsymbols-motion-group:1;-sfsymbols-always-rotates:true;-sfsymbols-layer-tags:777bdd19388f653e gearshape.arrow.trianglehead.2.clockwise.rotate.90;-sfsymbols-clipstroke-attachments:1 4 0 1 0 0,1 4 0 3 1 2}
.hierarchical-1:primary {-sfsymbols-motion-group:0;-sfsymbols-always-pulses:true;-sfsymbols-layer-tags:777bdd19388f653e gearshape.arrow.trianglehead.2.clockwise.rotate.90}

.SFSymbolsPreviewWireframe {fill:none;opacity:1.0;stroke:black;stroke-width:0.5}
</style>
 <g id="Notes">
  <rect height="2200" id="artboard" style="fill:white;opacity:1" width="3300" x="0" y="0"/>
  <line style="fill:none;stroke:black;opacity:1;stroke-width:0.5;" x1="263" x2="3036" y1="292" y2="292"/>
  <text style="stroke:none;fill:black;font-family:sans-serif;font-size:13;font-weight:bold;" transform="matrix(1 0 0 1 263 322)">Weight/Scale Variations</text>
  <text style="stroke:none;fill:black;font-family:sans-serif;font-size:13;text-anchor:middle;" transform="matrix(1 0 0 1 559.711 322)">Ultralight</text>
  <text style="stroke:none;fill:black;font-family:sans-serif;font-size:13;text-anchor:middle;" transform="matrix(1 0 0 1 856.422 322)">Thin</text>
  <text style="stroke:none;fill:black;font-family:sans-serif;font-size:13;text-anchor:middle;" transform="matrix(1 0 0 1 1153.13 322)">Light</text>
  <text style="stroke:none;fill:black;font-family:sans-serif;font-size:13;text-anchor:middle;" transform="matrix(1 0 0 1 1449.84 322)">Regular</text>
  <text style="stroke:none;fill:black;font-family:sans-serif;font-size:13;text-anchor:middle;" transform="matrix(1 0 0 1 1746.56 322)">Medium</text>
  <text style="stroke:none;fill:black;font-family:sans-serif;font-size:13;text-anchor:middle;" transform="matrix(1 0 0 1 2043.27 322)">Semibold</text>
  <text style="stroke:none;fill:black;font-family:sans-serif;font-size:13;text-anchor:middle;" transform="matrix(1 0 0 1 2339.98 322)">Bold</text>
  <text style="stroke:none;fill:black;font-family:sans-serif;font-size:13;text-anchor:middle;" transform="matrix(1 0 0 1 2636.69 322)">Heavy</text>
  <text style="stroke:none;fill:black;font-family:sans-serif;font-size:13;text-anchor:middle;" transform="matrix(1 0 0 1 2933.4 322)">Black</text>
  <line style="fill:none;stroke:black;opacity:1;stroke-width:0.5;" x1="263" x2="3036" y1="1903" y2="1903"/>
  <g transform="matrix(0.2 0 0 0.2 263 1933)">
   <path d="m46.2402 4.15039c21.7773 0 39.4531-17.627 39.4531-39.4043s-17.6758-39.4043-39.4531-39.4043c-21.7285 0-39.4043 17.627-39.4043 39.4043s17.6758 39.4043 39.4043 39.4043Zm0-7.42188c-17.6758 0-31.9336-14.3066-31.9336-31.9824s14.2578-31.9824 31.9336-31.9824 31.9824 14.3066 31.9824 31.9824-14.3066 31.9824-31.9824 31.9824Zm3.61328-17.7734v-28.4668c0-2.24609-1.46484-3.75977-3.71094-3.75977-2.14844 0-3.61328 1.51367-3.61328 3.75977v28.4668c0 2.19727 1.46484 3.71094 3.61328 3.71094 2.24609 0 3.71094-1.51367 3.71094-3.71094Zm-17.8223-10.5957h28.418c2.19727 0 3.71094-1.46484 3.71094-3.61328 0-2.19727-1.51367-3.71094-3.71094-3.71094h-28.418c-2.24609 0-3.75977 1.51367-3.75977 3.71094 0 2.14844 1.51367 3.61328 3.75977 3.61328Z"/>
  </g>
  <g transform="matrix(0.2 0 0 0.2 281.506 1933)">
   <path d="m58.5449 14.5508c27.4902 0 49.8047-22.3145 49.8047-49.8047s-22.3145-49.8047-49.8047-49.8047-49.8047 22.3145-49.8047 49.8047 22.3145 49.8047 49.8047 49.8047Zm0-8.30078c-22.9492 0-41.5039-18.5547-41.5039-41.5039s18.5547-41.5039 41.5039-41.5039 41.5039 18.5547 41.5039 41.5039-18.5547 41.5039-41.5039 41.5039Zm4.05273-23.0957v-36.9141c0-2.49023-1.70898-4.19922-4.15039-4.19922-2.39258 0-4.05273 1.70898-4.05273 4.19922v36.9141c0 2.44141 1.66016 4.15039 4.05273 4.15039 2.44141 0 4.15039-1.66016 4.15039-4.15039Zm-22.5586-14.4043h36.9629c2.44141 0 4.15039-1.61133 4.15039-4.00391 0-2.44141-1.70898-4.15039-4.15039-4.15039h-36.9629c-2.49023 0-4.15039 1.70898-4.15039 4.15039 0 2.39258 1.66016 4.00391 4.15039 4.00391Z"/>
  </g>
  <g transform="matrix(0.2 0 0 0.2 304.924 1933)">
   <path d="m74.8535 28.3203c35.1074 0 63.623-28.4668 63.623-63.5742s-28.5156-63.623-63.623-63.623-63.5742 28.5156-63.5742 63.623 28.4668 63.5742 63.5742 63.5742Zm0-9.08203c-30.127 0-54.4922-24.3652-54.4922-54.4922s24.3652-54.4922 54.4922-54.4922 54.4922 24.3652 54.4922 54.4922-24.3652 54.4922-54.4922 54.4922Zm4.44336-30.3223v-48.4863c0-2.73438-1.85547-4.63867-4.54102-4.63867-2.58789 0-4.44336 1.9043-4.44336 4.63867v48.4863c0 2.68555 1.85547 4.58984 4.44336 4.58984 2.68555 0 4.54102-1.85547 4.54102-4.58984Zm-28.7109-19.7754h48.4863c2.68555 0 4.58984-1.80664 4.58984-4.39453 0-2.73438-1.85547-4.58984-4.58984-4.58984h-48.4863c-2.73438 0-4.58984 1.85547-4.58984 4.58984 0 2.58789 1.85547 4.39453 4.58984 4.39453Z"/>
  </g>
  <text style="stroke:none;fill:black;font-family:sans-serif;font-size:13;font-weight:bold;" transform="matrix(1 0 0 1 263 1953)">Design Variations</text>
  <text style="stroke:none;fill:black;font-family:sans-serif;font-size:13;" transform="matrix(1 0 0 1 263 1971)">Symbols are supported in up to nine weights and three scales.</text>
  <text style="stroke:none;fill:black;font-family:sans-serif;font-size:13;" transform="matrix(1 0 0 1 263 1989)">For optimal layout with text and other symbols, vertically align</text>
  <text style="stroke:none;fill:black;font-family:sans-serif;font-size:13;" transform="matrix(1 0 0 1 263 2007)">symbols with the adjacent text.</text>
  <line style="fill:none;stroke:#00AEEF;stroke-width:0.5;opacity:1.0;" x1="776" x2="776" y1="1919" y2="1933"/>
  <g transform="matrix(0.2 0 0 0.2 776 1933)">
   <path d="m16.5527 0.78125c2.58789 0 3.85742-0.976562 4.78516-3.71094l20.5566-57.5195h0.244141l20.6055 57.5195c0.927734 2.73438 2.19727 3.71094 4.73633 3.71094 2.58789 0 4.24805-1.5625 4.24805-4.00391 0-0.830078-0.146484-1.61133-0.537109-2.63672l-22.9004-60.9863c-1.12305-2.97852-3.125-4.49219-6.25-4.49219-3.02734 0-5.07812 1.46484-6.15234 4.44336l-22.9004 61.084c-0.390625 1.02539-0.537109 1.80664-0.537109 2.63672 0 2.44141 1.5625 3.95508 4.10156 3.95508Zm10.2051-20.9473h30.6641c2.00195 0 3.66211-1.66016 3.66211-3.66211 0-2.05078-1.66016-3.66211-3.66211-3.66211h-30.6641c-2.00195 0-3.66211 1.61133-3.66211 3.66211 0 2.00195 1.66016 3.66211 3.66211 3.66211Z"/>
  </g>
  <line style="fill:none;stroke:#00AEEF;stroke-width:0.5;opacity:1.0;" x1="792.836" x2="792.836" y1="1919" y2="1933"/>
  <text style="stroke:none;fill:black;font-family:sans-serif;font-size:13;font-weight:bold;" transform="matrix(1 0 0 1 776 1953)">Margins</text>
  <text style="stroke:none;fill:black;font-family:sans-serif;font-size:13;" transform="matrix(1 0 0 1 776 1971)">Leading and trailing margins on the left and right side of each symbol</text>
  <text style="stroke:none;fill:black;font-family:sans-serif;font-size:13;" transform="matrix(1 0 0 1 776 1989)">can be adjusted by modifying the x-location of the margin guidelines.</text>
  <text style="stroke:none;fill:black;font-family:sans-serif;font-size:13;" transform="matrix(1 0 0 1 776 2007)">Modifications are automatically applied proportionally to all</text>
  <text style="stroke:none;fill:black;font-family:sans-serif;font-size:13;" transform="matrix(1 0 0 1 776 2025)">scales and weights.</text>
  <g transform="matrix(0.2 0 0 0.2 1289 1933)">
   <path d="m14.209 13.1348 7.86133 7.86133c4.29688 4.39453 9.32617 4.10156 13.8672-1.02539l60.6934-68.2129-4.88281-4.88281-60.2539 67.6758c-1.80664 1.95312-3.4668 2.44141-5.81055 0.0976562l-5.17578-5.12695c-2.29492-2.29492-1.80664-3.95508 0.195312-5.81055l67.4805-62.1582-4.88281-4.83398-68.0664 62.5977c-4.98047 4.58984-5.32227 9.47266-1.02539 13.8184Zm44.873-97.4609c-2.05078 2.00195-2.24609 4.88281-1.07422 6.78711 1.12305 1.80664 3.4668 3.02734 6.5918 2.24609 5.85938-1.66016 12.5977-2.39258 18.8965 0.927734l-2.68555 7.12891c-1.61133 4.00391-0.732422 6.88477 1.70898 9.42383l10.2539 10.3027c2.34375 2.39258 4.54102 2.44141 7.08008 1.95312l4.44336-0.732422 2.58789 2.53906-0.195312 2.24609c-0.0976562 2.29492 0.537109 4.29688 2.7832 6.49414l3.36914 3.32031c2.29492 2.29492 5.51758 2.49023 7.8125 0.195312l12.9883-13.0371c2.29492-2.34375 2.14844-5.37109-0.195312-7.66602l-3.41797-3.41797c-2.19727-2.19727-4.05273-3.02734-6.34766-2.88086l-2.34375 0.244141-2.44141-2.44141 1.02539-4.6875c0.634766-2.73438-0.244141-4.98047-2.88086-7.61719l-11.2793-11.1816c-12.9395-12.8418-35.5957-11.0352-46.6797-0.146484Zm7.08008 2.05078c8.78906-6.39648 25.9766-5.66406 33.6914 1.95312l12.3047 12.207c1.02539 1.02539 1.2207 1.80664 0.927734 3.32031l-1.46484 6.64062 6.73828 6.68945 4.39453-0.244141c1.12305-0.0488281 1.51367 0.0488281 2.34375 0.878906l2.53906 2.49023-10.8398 10.8398-2.49023-2.49023c-0.830078-0.878906-0.976562-1.2207-0.927734-2.39258l0.292969-4.3457-6.68945-6.73828-6.83594 1.17188c-1.41602 0.292969-2.05078 0.195312-3.17383-0.878906l-8.93555-8.88672c-1.07422-1.02539-1.17188-1.70898-0.488281-3.36914l4.58984-11.4746c-6.10352-6.34766-17.041-7.51953-25.5859-4.58984-0.683594 0.244141-0.927734-0.390625-0.390625-0.78125Z"/>
  </g>
  <text style="stroke:none;fill:black;font-family:sans-serif;font-size:13;font-weight:bold;" transform="matrix(1 0 0 1 1289 1953)">Exporting</text>
  <text style="stroke:none;fill:black;font-family:sans-serif;font-size:13;" transform="matrix(1 0 0 1 1289 1971)">Symbols should be outlined when exporting to ensure the</text>
  <text style="stroke:none;fill:black;font-family:sans-serif;font-size:13;" transform="matrix(1 0 0 1 1289 1989)">design is preserved when submitting to Xcode.</text>
  <text id="template-version" style="stroke:none;fill:black;font-family:sans-serif;font-size:13;text-anchor:end;" transform="matrix(1 0 0 1 3036 1933)">Template v.7.0</text>
  <text style="stroke:none;fill:black;font-family:sans-serif;font-size:13;text-anchor:end;" transform="matrix(1 0 0 1 3036 1951)">Requires Xcode 17 or greater</text>
  <text id="descriptive-name" style="stroke:none;fill:black;font-family:sans-serif;font-size:13;text-anchor:end;" transform="matrix(1 0 0 1 3036 1969)">Generated from custom.gearshape.arrow.trianglehead.2.clockwise.rotate.90</text>
  <text style="stroke:none;fill:black;font-family:sans-serif;font-size:13;text-anchor:end;" transform="matrix(1 0 0 1 3036 1987)">Typeset at 100.0 points</text>
  <text style="stroke:none;fill:black;font-family:sans-serif;font-size:13;" transform="matrix(1 0 0 1 263 726)">Small</text>
  <text style="stroke:none;fill:black;font-family:sans-serif;font-size:13;" transform="matrix(1 0 0 1 263 1156)">Medium</text>
  <text style="stroke:none;fill:black;font-family:sans-serif;font-size:13;" transform="matrix(1 0 0 1 263 1586)">Large</text>
 </g>
 <g id="Guides">
  <g id="H-reference" style="fill:#27AAE1;stroke:none;" transform="matrix(1 0 0 1 339 696)">
   <path d="M0.993654 0L3.63775 0L29.3281-67.1323L30.0303-67.1323L30.0303-70.459L28.1226-70.459ZM11.6885-24.4799L46.9815-24.4799L46.2315-26.7285L12.4385-26.7285ZM55.1196 0L57.7637 0L30.6382-70.459L29.4326-70.459L29.4326-67.1323Z"/>
  </g>
  <line id="Baseline-S" style="fill:none;stroke:#27AAE1;opacity:1;stroke-width:0.5;" x1="263" x2="3036" y1="696" y2="696"/>
  <line id="Capline-S" style="fill:none;stroke:#27AAE1;opacity:1;stroke-width:0.5;" x1="263" x2="3036" y1="625.541" y2="625.541"/>
  <g id="H-reference" style="fill:#27AAE1;stroke:none;" transform="matrix(1 0 0 1 339 1126)">
   <path d="M0.993654 0L3.63775 0L29.3281-67.1323L30.0303-67.1323L30.0303-70.459L28.1226-70.459ZM11.6885-24.4799L46.9815-24.4799L46.2315-26.7285L12.4385-26.7285ZM55.1196 0L57.7637 0L30.6382-70.459L29.4326-70.459L29.4326-67.1323Z"/>
  </g>
  <line id="Baseline-M" style="fill:none;stroke:#27AAE1;opacity:1;stroke-width:0.5;" x1="263" x2="3036" y1="1126" y2="1126"/>
  <line id="Capline-M" style="fill:none;stroke:#27AAE1;opacity:1;stroke-width:0.5;" x1="263" x2="3036" y1="1055.54" y2="1055.54"/>
  <g id="H-reference" style="fill:#27AAE1;stroke:none;" transform="matrix(1 0 0 1 339 1556)">
   <path d="M0.993654 0L3.63775 0L29.3281-67.1323L30.0303-67.1323L30.0303-70.459L28.1226-70.459ZM11.6885-24.4799L46.9815-24.4799L46.2315-26.7285L12.4385-26.7285ZM55.1196 0L57.7637 0L30.6382-70.459L29.4326-70.459L29.4326-67.1323Z"/>
  </g>
  <line id="Baseline-L" style="fill:none;stroke:#27AAE1;opacity:1;stroke-width:0.5;" x1="263" x2="3036" y1="1556" y2="1556"/>
  <line id="Capline-L" style="fill:none;stroke:#27AAE1;opacity:1;stroke-width:0.5;" x1="263" x2="3036" y1="1485.54" y2="1485.54"/>
  <line id="right-margin-Black-S" style="fill:none;stroke:#00AEEF;stroke-width:0.5;opacity:1.0;" x1="2982.23" x2="2982.23" y1="600.785" y2="720.121"/>
  <line id="left-margin-Black-S" style="fill:none;stroke:#00AEEF;stroke-width:0.5;opacity:1.0;" x1="2884.57" x2="2884.57" y1="600.785" y2="720.121"/>
  <line id="right-margin-Regular-S" style="fill:none;stroke:#FF3B30;stroke-width:0.5;opacity:1.0;" x1="1496.11" x2="1496.11" y1="600.785" y2="720.121"/>
  <line id="left-margin-Regular-S" style="fill:none;stroke:#FF3B30;stroke-width:0.5;opacity:1.0;" x1="1403.58" x2="1403.58" y1="600.785" y2="720.121"/>
  <line id="right-margin-Ultralight-S" style="fill:none;stroke:#FF3B30;stroke-width:0.5;opacity:1.0;" x1="603.751" x2="603.751" y1="600.785" y2="720.121"/>
  <line id="left-margin-Ultralight-S" style="fill:none;stroke:#FF3B30;stroke-width:0.5;opacity:1.0;" x1="515.672" x2="515.672" y1="600.785" y2="720.121"/>
 </g>
 <g id="Symbols">
  <g id="Black-S" transform="matrix(1 0 0 1 2884.57 696)">
   <path class="monochrome-0 multicolor-0:tintColor hierarchical-0:secondary SFSymbolsPreviewWireframe" d="M93.7988-44.4824L73.0469-44.4824C69.7266-44.4824 68.9453-41.0645 70.7031-38.8184L81.1523-25.5859C82.3242-24.1211 84.5703-24.1211 85.6934-25.5859L96.1914-38.8184C97.998-41.0645 97.168-44.4824 93.7988-44.4824ZM48.8281-63.0859C64.209-63.0859 76.6602-50.6348 76.6602-35.1562C76.6602-31.25 79.834-28.0762 83.7402-28.0762C87.6465-28.0762 90.8203-31.25 90.8203-35.1562C90.8203-58.4473 72.0215-77.2461 48.8281-77.2461C40.625-77.2461 33.0566-74.9023 26.6602-70.9473C22.6074-68.4082 22.4609-63.8672 24.5117-60.8398C26.416-58.1055 30.2246-56.5918 34.7168-59.2285C38.8184-61.6699 43.6523-63.0859 48.8281-63.0859ZM3.85742-26.0254L24.6094-26.0254C27.9297-26.0254 28.7109-29.4434 26.9531-31.6895L16.5039-44.9219C15.332-46.3867 13.0859-46.3867 11.9629-44.9219L1.46484-31.6895C-0.341797-29.4434 0.488281-26.0254 3.85742-26.0254ZM48.8281-7.42188C33.4473-7.42188 20.9961-19.873 20.9961-35.3516C20.9961-39.2578 17.8223-42.4316 13.916-42.4316C10.0098-42.4316 6.83594-39.2578 6.83594-35.3516C6.83594-12.0605 25.6348 6.73828 48.8281 6.73828C57.0312 6.73828 64.5996 4.39453 70.9961 0.439453C75.0488-2.09961 75.1953-6.64062 73.1445-9.66797C71.2402-12.4023 67.4316-13.916 62.9395-11.2793C58.8379-8.83789 54.0039-7.42188 48.8281-7.42188Z" data-clipstroke-keyframes="0 0 0 1.9237058 1.8033822 0 0.26726753 1 1.6831474 0 1 1.2275643 1.3427193 0 0 3.8038385 3.9200184 0 0.274474 3.000233 3.6829715 0 1 3.2256823 3.3407168"/>
   <path class="monochrome-1 multicolor-1:tintColor hierarchical-1:primary SFSymbolsPreviewWireframe" d="M47.3145-18.6035L49.9512-18.6035C51.3184-18.6035 52.3926-19.4824 52.7344-20.8008L53.3203-23.3398C53.5156-23.4375 53.6621-23.4863 53.8086-23.5352L56.0059-22.168C57.1777-21.4355 58.6426-21.582 59.5703-22.5586L61.377-24.4141C62.3535-25.3418 62.4512-26.8066 61.7188-27.9785L60.4004-30.1758C60.4492-30.2734 60.498-30.4199 60.5957-30.5664L63.1348-31.1523C64.4531-31.4941 65.332-32.5684 65.332-33.9844L65.332-36.5234C65.332-37.8906 64.4531-39.0137 63.1348-39.3555L60.6445-39.8926C60.5469-40.0391 60.498-40.2344 60.4004-40.332L61.7676-42.5781C62.5-43.7988 62.3535-45.166 61.377-46.1426L59.5215-47.998C58.5449-48.877 57.2754-49.0723 56.1035-48.4375L53.8086-46.9727C53.6621-47.0703 53.5156-47.1191 53.3691-47.2168L52.7344-49.8047C52.3926-51.123 51.3184-52.002 49.9512-52.002L47.3145-52.002C45.9473-52.002 44.873-51.123 44.5312-49.7559L43.9453-47.2168C43.75-47.168 43.6035-47.0703 43.457-47.0215L41.1621-48.4375C39.9902-49.0723 38.6719-48.9258 37.7441-47.998L35.8887-46.1426C34.9121-45.166 34.7656-43.7988 35.498-42.5781L36.8652-40.332C36.7676-40.2344 36.7188-40.0391 36.6211-39.8926L34.1309-39.3555C32.8125-39.0137 31.9336-37.8906 31.9336-36.5234L31.9336-33.9844C31.9336-32.5684 32.8125-31.4941 34.1309-31.1523L36.6699-30.5664C36.7676-30.4199 36.8164-30.2734 36.8652-30.1758L35.5469-27.9785C34.8145-26.8066 34.9121-25.3418 35.8887-24.4141L37.6953-22.5586C38.623-21.582 40.0879-21.4355 41.2598-22.168L43.457-23.5352C43.6035-23.4863 43.75-23.4375 43.9453-23.3398L44.5312-20.8008C44.873-19.4824 45.9473-18.6035 47.3145-18.6035ZM48.6328-30.4199C45.9473-30.4199 43.75-32.6172 43.75-35.3027C43.75-37.9883 45.9473-40.1855 48.6328-40.1855C51.3184-40.1855 53.5156-37.9883 53.5156-35.3027C53.5156-32.6172 51.3184-30.4199 48.6328-30.4199Z"/>
  </g>
  <g id="Regular-S" transform="matrix(1 0 0 1 1403.58 696)">
   <path class="monochrome-0 multicolor-0:tintColor hierarchical-0:secondary SFSymbolsPreviewWireframe" d="M90.1855-42.627L72.3633-42.627C69.3359-42.627 68.6035-40.5273 70.2148-38.2324L78.9062-25.8301C80.2246-23.9258 82.2754-23.877 83.6426-25.8301L92.334-38.1836C93.9941-40.5273 93.2129-42.627 90.1855-42.627ZM46.2402-67.2363C63.916-67.2363 78.2227-52.9297 78.2227-35.2539C78.2227-33.252 79.9316-31.543 81.9824-31.543C83.9844-31.543 85.6445-33.2031 85.6934-35.2051C85.6445-57.0801 68.0176-74.6582 46.2402-74.6582C34.668-74.6582 24.2188-69.6777 17.041-61.7188C15.1855-59.668 15.8691-57.1289 17.4805-55.9082C18.8965-54.9316 20.8008-54.7852 22.6074-56.7871C28.4668-63.1836 36.8652-67.2363 46.2402-67.2363ZM2.34375-27.8809L20.1172-27.8809C23.1445-27.8809 23.9258-29.9805 22.3145-32.2754L13.623-44.6777C12.3047-46.582 10.2539-46.6309 8.88672-44.6777L0.195312-32.3242C-1.46484-29.9805-0.732422-27.8809 2.34375-27.8809ZM46.2402-3.27148C28.5645-3.27148 14.3066-17.5781 14.3066-35.2539C14.3066-37.2559 12.5977-38.9648 10.5469-38.9648C8.54492-38.9648 6.88477-37.3047 6.83594-35.3027C6.88477-13.4277 24.5117 4.15039 46.2402 4.15039C57.8613 4.15039 68.2617-0.830078 75.4883-8.78906C77.2949-10.8398 76.6602-13.3789 75-14.5996C73.6328-15.5762 71.7285-15.7227 69.9219-13.7207C64.0625-7.32422 55.6152-3.27148 46.2402-3.27148Z" data-clipstroke-keyframes="0 0 0 1.8643324 1.7999887 0 0.35575014 1 1.6327074 0 1 1.257021 1.3164625 0 0 3.8005836 3.8635058 0 0.3591409 3.0002646 3.6322565 0 1 3.2558615 3.3157783"/>
   <path class="monochrome-1 multicolor-1:tintColor hierarchical-1:primary SFSymbolsPreviewWireframe" d="M44.5312-15.0879L47.998-15.0879C48.9746-15.0879 49.6582-15.6738 49.9023-16.6016L50.9277-20.8984C51.709-21.1914 52.4902-21.4844 53.1738-21.8262L56.9336-19.5312C57.7148-19.043 58.6426-19.0918 59.3262-19.7754L61.7188-22.168C62.4023-22.8027 62.5-23.8281 61.9141-24.6582L59.7168-28.3691C60.0586-29.0527 60.3516-29.7852 60.5469-30.5176L64.8926-31.543C65.8203-31.7383 66.4062-32.4707 66.4062-33.4961L66.4062-36.8652C66.4062-37.793 65.8203-38.4766 64.8926-38.7207L60.5957-39.7461C60.3516-40.625 60.0098-41.3574 59.7168-41.9922L62.0117-45.752C62.5-46.5332 62.5-47.5098 61.8164-48.1934L59.3262-50.5859C58.6426-51.1719 57.7637-51.3672 56.9824-50.8789L53.1738-48.5352C52.4902-48.8281 51.7578-49.1699 50.9277-49.4629L49.9023-53.8086C49.6582-54.7363 48.9746-55.3223 47.998-55.3223L44.5312-55.3223C43.5547-55.3223 42.8711-54.7363 42.627-53.8086L41.6016-49.5117C40.8203-49.2188 40.0391-48.9258 39.3555-48.5352L35.5957-50.8789C34.7656-51.3672 33.8867-51.2207 33.2031-50.5859L30.7617-48.1934C30.0293-47.5098 30.0293-46.5332 30.5176-45.752L32.8125-41.9922C32.5195-41.3574 32.1777-40.625 31.9336-39.7461L27.6367-38.7207C26.709-38.4766 26.123-37.793 26.123-36.8652L26.123-33.4961C26.123-32.4707 26.709-31.7383 27.6367-31.543L31.9824-30.5176C32.1777-29.7852 32.5195-29.0527 32.8613-28.3691L30.6152-24.6582C30.0293-23.8281 30.1758-22.8027 30.8105-22.168L33.2031-19.7754C33.8867-19.0918 34.8145-19.043 35.5957-19.5312L39.3555-21.8262C40.0391-21.4844 40.8203-21.1914 41.6016-20.8984L42.627-16.6016C42.8711-15.6738 43.5547-15.0879 44.5312-15.0879ZM46.2891-28.5645C42.5781-28.5645 39.5508-31.543 39.5508-35.2539C39.5508-38.9648 42.5781-41.9434 46.2891-41.9434C49.9512-41.9434 52.9785-38.9648 52.9785-35.2539C52.9785-31.543 49.9512-28.5645 46.2891-28.5645Z"/>
  </g>
  <g id="Ultralight-S" transform="matrix(1 0 0 1 515.672 696)">
   <path class="monochrome-0 multicolor-0:tintColor hierarchical-0:secondary SFSymbolsPreviewWireframe" d="M88.1421-37.1778L71.7275-37.1778C70.4258-37.1778 69.9204-36.2588 70.8052-35.0083L78.77-23.6504C79.4526-22.6089 80.4136-22.6055 81.145-23.6504L89.0645-35.0049C89.9527-36.2588 89.4439-37.1778 88.1421-37.1778ZM44.0606-70.2334C63.4165-70.2334 79.04-54.6099 79.04-35.2539C79.04-34.6597 79.5684-34.1313 80.166-34.1313C80.7603-34.1313 81.2852-34.6562 81.2886-35.2505C81.2852-55.8086 64.6118-72.4785 44.0606-72.4785C33.0786-72.4785 22.811-67.6343 15.9058-59.6299C15.458-59.0776 15.5513-58.4004 16.0274-57.9971C16.5352-57.5654 17.168-57.6914 17.6123-58.2402C24.1983-65.772 33.732-70.2334 44.0606-70.2334ZM-0.0175595-33.33L16.3482-33.33C17.6499-33.33 18.1587-34.249 17.274-35.4995L9.35453-46.8574C8.62649-47.8989 7.71096-47.9023 6.97951-46.8574L-0.985342-35.5029C-1.82812-34.249-1.36816-33.33-0.0175595-33.33ZM44.0606-0.274438C24.7046-0.274438 9.0391-15.898 9.0391-35.2539C9.0391-35.8482 8.55618-36.3765 7.95852-36.3765C7.31886-36.3765 6.83936-35.8516 6.83594-35.2573C6.83936-14.6992 23.4673 1.97072 44.0606 1.97072C55.0005 1.97072 65.2647-2.87352 72.1734-10.8779C72.6631-11.4302 72.5733-12.1074 72.0484-12.5108C71.5894-12.9424 70.9111-12.8164 70.4668-12.2676C63.9263-4.73586 54.3438-0.274438 44.0606-0.274438Z" data-clipstroke-keyframes="0 0 0 1.8365295 1.8149234 0 0.35460058 1 1.6408505 0 1 1.3015809 1.3208163 0 0 3.8155913 3.835878 0 0.35661095 3.000311 3.6408696 0 1 3.3011682 3.3202765"/>
   <path class="monochrome-1 multicolor-1:tintColor hierarchical-1:primary SFSymbolsPreviewWireframe" d="M42.0337-15.0879L46.0454-15.0879C47.2036-15.0879 47.9326-15.6738 48.2222-16.874L49.1113-20.9438C49.6655-21.146 50.2197-21.3481 50.7217-21.5083L54.2544-19.2588C55.2627-18.6343 56.2359-18.7285 57.0103-19.5483L59.8115-22.3042C60.6314-23.166 60.7744-24.1006 60.0977-25.1123L57.9004-28.6416C58.0606-29.189 58.2627-29.7397 58.458-30.2451L62.5313-31.1797C63.7315-31.4658 64.3174-32.1982 64.3174-33.3145L64.3174-37.3193C64.3174-38.4741 63.7315-39.2031 62.5313-39.4927L58.4614-40.4272C58.2627-40.9429 58.0571-41.4937 57.9004-42.0376L60.1045-45.5703C60.7744-46.5332 60.6382-47.5098 59.8184-48.3296L57.0103-51.1309C56.2359-51.8984 55.2661-52.0483 54.2578-51.3784L50.7217-49.1709C50.2197-49.3276 49.669-49.5332 49.1113-49.7353L48.2222-53.8086C47.9326-55.0088 47.2036-55.5947 46.0454-55.5947L42.0337-55.5947C40.9209-55.5947 40.1919-55.0088 39.9024-53.8086L38.9678-49.7388C38.459-49.5366 37.9048-49.3345 37.3574-49.1709L33.8247-51.3784C32.813-52.0483 31.8887-51.9473 31.0235-51.1309L28.2642-48.3296C27.4409-47.5098 27.3501-46.5332 27.9746-45.5703L30.2241-42.0376C30.022-41.4937 29.8164-40.9429 29.6177-40.4272L25.5933-39.4927C24.3931-39.2031 23.8071-38.4741 23.8071-37.3193L23.8071-33.3145C23.8071-32.1982 24.3931-31.4658 25.5933-31.1797L29.6211-30.2451C29.8164-29.7397 30.022-29.189 30.2276-28.6416L27.9815-25.1123C27.3501-24.1006 27.4058-23.166 28.2676-22.3042L31.0235-19.5483C31.8887-18.7285 32.8164-18.6343 33.8247-19.2588L37.3574-21.5083C37.9048-21.3481 38.459-21.146 38.9678-20.9438L39.9024-16.874C40.1919-15.6738 40.9209-15.0879 42.0337-15.0879ZM44.064-28.1558C40.0806-28.1558 36.8262-31.4067 36.8262-35.3901C36.8262-39.3735 40.0806-42.6245 44.064-42.6245C48.044-42.6245 51.2984-39.3735 51.2984-35.3901C51.2984-31.4067 48.044-28.1558 44.064-28.1558Z"/>
  </g>
 </g>
 <g id="Data">
  <g id="Black-S-draw-attachment-data" data-d="0 1 0 2968.31 660.844 1 0 2898.49 660.648"/>
  <g id="Regular-S-draw-attachment-data" data-d="0 1 0 1485.54 660.743 1 0 1414.15 660.789"/>
  <g id="Ultralight-S-draw-attachment-data" data-d="0 1 0 595.836 660.726 1 0 523.609 660.762"/>
 </g>
</svg>
